<?xml version="1.0" standalone="no"?>
<!DOCTYPE svg PUBLIC "-//W3C//DTD SVG 20010904//EN"
 "http://www.w3.org/TR/2001/REC-SVG-20010904/DTD/svg10.dtd">
<svg version="1.0" xmlns="http://www.w3.org/2000/svg"
 width="260.000000pt" height="260.000000pt" viewBox="0 0 260.000000 260.000000"
 preserveAspectRatio="xMidYMid meet">
<metadata>
Created by potrace 1.14, written by Peter Selinger 2001-2017
</metadata>
<g transform="translate(0.000000,260.000000) scale(0.100000,-0.100000)"
fill="#000000" stroke="none">
<path d="M0 1300 l0 -1300 1300 0 1300 0 0 1300 0 1300 -1300 0 -1300 0 0
-1300z m1425 1039 c352 -42 664 -270 819 -600 69 -146 89 -237 90 -406 1 -136
0 -142 -23 -167 -14 -14 -28 -26 -32 -26 -4 0 -7 64 -7 143 0 194 -24 303
-104 461 -51 102 -72 133 -158 227 -120 133 -320 248 -493 283 -100 21 -118
21 -110 -1 4 -11 3 -14 -5 -9 -7 4 -12 14 -12 22 0 19 -148 19 -263 -1 -236
-41 -468 -180 -606 -361 -67 -89 -145 -248 -171 -349 -24 -94 -39 -246 -33
-327 l5 -57 -28 3 c-25 3 -30 9 -37 47 -5 24 -6 89 -3 144 25 490 406 902 902
974 85 12 166 12 269 0z m-131 -138 c4 -5 3 -16 0 -25 -6 -15 -8 -15 -19 1
-13 18 -11 33 5 33 5 0 11 -4 14 -9z m141 -1 c3 -5 1 -10 -4 -10 -6 0 -11 5
-11 10 0 6 2 10 4 10 3 0 8 -4 11 -10z m40 0 c3 -5 2 -10 -4 -10 -5 0 -13 5
-16 10 -3 6 -2 10 4 10 5 0 13 -4 16 -10z m-145 -10 c0 -5 -2 -10 -4 -10 -3 0
-8 5 -11 10 -3 6 -1 10 4 10 6 0 11 -4 11 -10z m-314 -48 c-14 -14 -16 -14
-16 -1 0 20 23 44 29 28 2 -6 -4 -18 -13 -27z m524 12 c0 -8 -4 -14 -10 -14
-5 0 -10 9 -10 21 0 11 5 17 10 14 6 -3 10 -13 10 -21z m-460 2 c0 -3 -4 -8
-10 -11 -5 -3 -10 -1 -10 4 0 6 5 11 10 11 6 0 10 -2 10 -4z m90 0 c0 -20 -24
-63 -35 -63 -8 0 -15 4 -15 9 0 4 7 8 15 8 8 0 15 7 15 15 0 8 -5 15 -11 15
-5 0 -7 5 -4 10 6 9 35 15 35 6z m417 -2 c-3 -3 -12 -4 -19 -1 -8 3 -5 6 6 6
11 1 17 -2 13 -5z m-350 -10 c-3 -3 -12 -4 -19 -1 -8 3 -5 6 6 6 11 1 17 -2
13 -5z m53 -2 c0 -4 -9 -8 -20 -9 -11 -1 -20 2 -20 8 0 5 9 9 20 9 11 0 20 -4
20 -8z m98 1 c-10 -2 -28 -2 -40 0 -13 2 -5 4 17 4 22 1 32 -1 23 -4z m112 -5
c0 -4 -7 -8 -15 -8 -8 0 -15 4 -15 8 0 5 7 9 15 9 8 0 15 -4 15 -9z m207 -13
c0 -18 -19 -15 -25 3 -2 7 3 12 11 12 7 0 14 -7 14 -15z m-41 -25 c0 -14 4
-34 8 -45 5 -11 -1 -6 -12 11 -11 18 -25 35 -31 38 -19 12 -12 24 12 22 16 -1
22 -7 23 -26z m-606 10 c0 -5 -4 -10 -10 -10 -5 0 -10 5 -10 10 0 6 5 10 10
10 6 0 10 -4 10 -10z m394 -31 l31 -2 -35 -6 c-24 -4 -36 -2 -38 7 -2 6 -7 12
-12 12 -5 0 -6 8 -3 17 6 15 8 14 16 -5 7 -15 20 -22 41 -23z m146 37 c0 -3
-4 -8 -10 -11 -5 -3 -10 -1 -10 4 0 6 5 11 10 11 6 0 10 -2 10 -4z m-625 -16
c17 -8 16 -8 -7 -7 -16 1 -28 5 -28 9 0 10 9 9 35 -2z m128 3 c-7 -2 -19 -2
-25 0 -7 3 -2 5 12 5 14 0 19 -2 13 -5z m417 -3 c0 -5 8 -10 18 -10 14 0 15 2
2 10 -13 8 -13 10 1 10 9 0 19 -6 22 -14 7 -18 -37 -27 -54 -12 -9 8 -10 8 -5
-1 4 -7 3 -13 -2 -13 -5 0 -12 9 -15 20 -4 15 0 20 14 20 10 0 19 -4 19 -10z
m-196 -16 c4 -10 1 -14 -6 -12 -15 5 -23 28 -10 28 5 0 13 -7 16 -16z m143 10
c-3 -3 -12 -4 -19 -1 -8 3 -5 6 6 6 11 1 17 -2 13 -5z m-197 -19 c0 -8 -4 -15
-9 -15 -13 0 -22 16 -14 24 11 11 23 6 23 -9z m112 0 c0 -5 -5 -11 -11 -13 -6
-2 -11 4 -11 13 0 9 5 15 11 13 6 -2 11 -8 11 -13z m328 -16 c15 -28 5 -23
-15 7 -9 15 -12 23 -6 20 6 -4 16 -16 21 -27z m-490 11 c0 -5 -5 -10 -11 -10
-5 0 -7 5 -4 10 3 6 8 10 11 10 2 0 4 -4 4 -10z m80 0 c0 -5 -4 -10 -10 -10
-5 0 -10 5 -10 10 0 6 5 10 10 10 6 0 10 -4 10 -10z m340 0 c0 -5 -2 -10 -4
-10 -3 0 -8 5 -11 10 -3 6 -1 10 4 10 6 0 11 -4 11 -10z m-760 -24 c0 -3 -4
-8 -10 -11 -5 -3 -10 -1 -10 4 0 6 5 11 10 11 6 0 10 -2 10 -4z m58 -13 c-10
-2 -26 -2 -35 0 -10 3 -2 5 17 5 19 0 27 -2 18 -5z m231 -19 c5 3 7 -3 4 -14
-6 -23 -23 -27 -23 -5 0 17 -16 20 -25 5 -9 -15 -35 -12 -35 3 0 27 21 37 46
20 13 -8 27 -12 33 -9z m-139 7 c0 -6 -9 -9 -20 -8 -11 1 -20 5 -20 9 0 4 9 8
20 8 11 0 20 -4 20 -9z m513 2 c-7 -2 -19 -2 -25 0 -7 3 -2 5 12 5 14 0 19 -2
13 -5z m241 -33 c-6 -5 -24 21 -24 34 0 6 6 1 14 -10 8 -10 12 -21 10 -24z
m-707 24 c-3 -3 -12 -4 -19 -1 -8 3 -5 6 6 6 11 1 17 -2 13 -5z m133 -4 c0 -5
-4 -10 -10 -10 -5 0 -10 5 -10 10 0 6 5 10 10 10 6 0 10 -4 10 -10z m95 0 c3
-5 1 -10 -4 -10 -6 0 -11 -13 -11 -30 0 -27 -3 -30 -32 -29 -31 2 -31 2 -5 6
23 4 27 9 27 39 0 33 12 45 25 24z m-460 -58 c-7 -2 -28 2 -47 7 -28 9 -29 10
-5 7 15 -2 30 1 33 5 3 5 11 3 19 -4 10 -10 11 -13 0 -15z m285 -7 c0 -19 -5
-35 -11 -35 -6 0 -9 7 -5 15 3 8 1 15 -4 15 -6 0 -10 -4 -10 -10 0 -5 -19 -10
-42 -9 -24 0 -37 3 -30 6 6 2 12 13 12 24 0 10 5 19 11 19 6 0 8 -9 4 -20 -5
-16 -2 -20 14 -20 12 0 20 6 19 13 -2 6 5 11 15 9 10 -2 17 3 17 13 0 8 2 15
5 15 3 0 5 -16 5 -35z m70 15 c0 -13 -7 -20 -18 -20 -10 0 -23 -5 -29 -11 -9
-9 -11 -7 -9 7 2 13 10 18 25 16 14 -2 21 2 21 12 0 9 2 16 5 16 3 0 5 -9 5
-20z m256 5 c4 -8 3 -22 0 -32 -6 -15 -8 -14 -20 3 -14 19 -11 44 5 44 5 0 12
-7 15 -15z m114 -5 c0 -5 -7 -7 -15 -4 -8 4 -12 10 -9 15 6 11 24 2 24 -11z
m200 -1 c0 -6 -4 -7 -10 -4 -5 3 -10 11 -10 16 0 6 5 7 10 4 6 -3 10 -11 10
-16z m38 -4 c12 -25 28 -33 34 -16 2 5 12 3 22 -5 11 -8 14 -14 7 -14 -7 0
-10 -4 -7 -9 4 -5 -3 -7 -15 -4 -21 6 -21 5 -4 -27 9 -17 15 -33 13 -35 -2 -2
-20 27 -40 65 -21 39 -34 70 -29 70 4 0 13 -11 19 -25z m-848 6 c0 -6 -4 -13
-10 -16 -5 -3 -10 1 -10 9 0 9 5 16 10 16 6 0 10 -4 10 -9z m-57 -16 c1 -5 -6
-11 -15 -13 -11 -2 -18 3 -18 13 0 17 30 18 33 0z m799 6 c2 -5 23 -12 47 -15
46 -5 75 -28 43 -35 -9 -2 -21 -6 -27 -10 -5 -4 -32 -9 -60 -10 -27 -2 -54 -5
-59 -9 -5 -3 -7 2 -3 11 4 10 1 14 -6 12 -30 -10 -87 -14 -87 -6 0 5 23 11 52
13 29 3 54 11 56 17 2 6 11 11 19 11 9 0 13 6 9 15 -3 8 -1 15 3 15 5 0 11 -4
13 -9z m-129 -11 c7 0 4 -5 -6 -11 -18 -11 -37 -5 -37 13 0 5 7 7 16 4 9 -3
21 -6 27 -6z m-283 -20 c0 -5 -4 -10 -10 -10 -5 0 -10 5 -10 10 0 6 5 10 10
10 6 0 10 -4 10 -10z m110 1 c0 -4 -11 -6 -25 -3 -14 2 -25 6 -25 8 0 2 11 4
25 4 14 0 25 -4 25 -9z m-630 -17 c0 -2 -9 -4 -20 -4 -11 0 -20 4 -20 9 0 5 9
7 20 4 11 -3 20 -7 20 -9z m296 -34 c13 0 24 -5 24 -11 0 -6 -7 -8 -16 -5 -9
3 -24 6 -33 6 -15 0 -17 6 -12 28 5 25 6 25 9 5 2 -17 10 -23 28 -23z m-243
23 c-7 -2 -19 -2 -25 0 -7 3 -2 5 12 5 14 0 19 -2 13 -5z m544 -30 c-3 -10 -5
-4 -5 12 0 17 2 24 5 18 2 -7 2 -21 0 -30z m-442 17 c42 -11 1 -11 -50 -1 -34
7 -35 9 -10 9 17 0 44 -4 60 -8z m525 6 c0 -11 -19 -15 -25 -6 -3 5 1 10 9 10
9 0 16 -2 16 -4z m-155 -60 c-4 -20 -12 -33 -17 -30 -5 3 -7 12 -4 20 3 8 1
14 -4 14 -14 0 -12 24 2 38 19 19 30 -2 23 -42z m-537 30 c21 0 32 -4 32 -14
0 -10 -7 -12 -22 -8 -13 3 -40 9 -60 12 -21 4 -38 11 -38 15 0 5 12 6 28 2 15
-4 42 -8 60 -7z m362 4 c0 -5 -4 -10 -10 -10 -5 0 -10 5 -10 10 0 6 5 10 10
10 6 0 10 -4 10 -10z m125 0 c4 -6 -17 -9 -57 -8 l-63 1 50 7 c28 4 53 8 57 8
4 1 10 -2 13 -8z m103 -1 c-2 -6 -8 -10 -13 -10 -5 0 -11 4 -13 10 -2 6 4 11
13 11 9 0 15 -5 13 -11z m258 -12 c4 -4 18 -7 30 -7 15 0 25 -8 29 -22 3 -13
10 -32 15 -43 10 -26 30 -122 29 -143 0 -22 -15 14 -22 54 -3 16 -10 41 -16
57 -6 15 -9 27 -6 27 2 0 -1 13 -6 29 -8 22 -15 28 -27 24 -9 -4 -19 -10 -22
-15 -10 -14 -70 -22 -70 -9 0 9 -16 12 -50 10 -27 -2 -53 0 -56 4 -4 4 0 7 9
7 10 0 17 6 17 13 0 9 2 9 9 -1 8 -14 61 -7 61 8 0 16 62 22 76 7z m-749 -24
c-3 -3 -11 -2 -17 2 -9 6 -9 10 1 16 14 8 27 -7 16 -18z m87 8 c9 -14 54 -19
65 -8 7 7 14 7 23 0 7 -6 36 -11 63 -12 28 0 63 -4 78 -7 21 -4 32 -1 42 13
13 17 15 17 31 1 16 -15 15 -18 -4 -42 -18 -24 -20 -24 -25 -7 -4 15 -16 20
-56 22 -29 2 -62 0 -73 -4 -14 -5 -24 -3 -29 4 -4 7 -14 9 -22 6 -9 -3 -30 -2
-48 3 -22 7 -37 6 -46 -1 -20 -17 -16 -29 11 -29 15 0 26 -7 29 -19 6 -23 -7
-48 -17 -32 -4 6 -16 11 -27 11 -10 0 -19 4 -19 9 0 4 11 6 25 3 15 -2 25 0
25 7 0 6 -11 11 -24 11 -17 0 -26 7 -30 23 -3 13 -16 29 -28 36 l-23 12 22 -5
c13 -2 26 0 29 5 7 11 21 12 28 0z m936 -36 c0 -5 -5 -3 -10 5 -5 8 -10 20
-10 25 0 6 5 3 10 -5 5 -8 10 -19 10 -25z m-500 21 c0 -3 -4 -8 -10 -11 -5 -3
-10 -1 -10 4 0 6 5 11 10 11 6 0 10 -2 10 -4z m40 0 c0 -11 -19 -15 -25 -6 -3
5 1 10 9 10 9 0 16 -2 16 -4z m526 -62 c8 -6 9 -15 4 -24 -6 -10 -13 -3 -24
25 -18 43 -21 60 -4 30 6 -11 16 -25 24 -31z m-929 4 c-3 -8 -6 -5 -6 6 -1 11
2 17 5 13 3 -3 4 -12 1 -19z m80 -40 c-2 -13 -4 -3 -4 22 0 25 2 35 4 23 2
-13 2 -33 0 -45z m60 40 c-3 -8 -6 -5 -6 6 -1 11 2 17 5 13 3 -3 4 -12 1 -19z
m-96 -31 c-8 -8 -14 -7 -23 2 -11 11 -10 12 0 6 9 -5 15 1 20 16 5 20 7 21 10
5 2 -10 -1 -23 -7 -29z m508 16 c7 -15 7 -23 1 -23 -6 0 -10 5 -10 10 0 6 -8
5 -20 -2 -23 -15 -46 1 -37 25 9 23 54 16 66 -10z m337 10 c15 -20 18 -53 6
-53 -17 0 -42 37 -36 54 8 20 14 20 30 -1z m-606 -23 c0 -16 -4 -30 -10 -30
-11 0 -14 43 -3 53 11 12 13 8 13 -23z m190 9 c0 -5 -4 -9 -10 -9 -5 0 -10 7
-10 16 0 8 5 12 10 9 6 -3 10 -10 10 -16z m150 6 c10 -12 10 -18 0 -31 -12
-13 -15 -13 -28 0 -15 15 -10 46 6 46 5 0 15 -7 22 -15z m-180 -5 c0 -5 -9
-10 -21 -10 -15 0 -20 -5 -17 -22 2 -15 10 -23 23 -23 11 0 21 -6 21 -13 1 -6
2 -16 3 -22 0 -5 9 -10 18 -10 15 0 14 -2 -3 -14 -16 -13 -20 -13 -27 0 -4 8
-5 19 -1 26 5 8 0 9 -16 5 -13 -3 -30 -1 -38 5 -8 7 -16 8 -20 2 -10 -13 -39
-11 -54 4 -9 9 -6 12 15 12 19 0 27 5 28 18 1 16 2 16 6 0 2 -10 11 -18 19
-18 9 0 14 8 13 18 -3 31 1 40 19 45 29 8 32 7 32 -3z m-440 -4 c0 -3 -4 -8
-10 -11 -5 -3 -10 -1 -10 4 0 6 5 11 10 11 6 0 10 -2 10 -4z m133 -16 c-3 -12
-8 -19 -11 -16 -5 6 5 36 12 36 2 0 2 -9 -1 -20z m184 -22 c-3 -8 -6 -5 -6 6
-1 11 2 17 5 13 3 -3 4 -12 1 -19z m686 2 c3 -11 3 -20 1 -20 -2 0 -8 9 -14
20 -6 11 -7 20 -2 20 6 0 12 -9 15 -20z m147 11 c0 -5 -9 -11 -21 -14 -16 -4
-18 -3 -8 9 13 16 29 19 29 5z m-1165 -21 c-5 -17 -2 -20 22 -21 15 -1 41 -3
58 -5 16 -2 37 3 46 12 14 12 18 12 33 -5 15 -17 15 -20 2 -34 -11 -11 -16
-42 -18 -116 l-3 -101 28 0 c15 0 27 -4 27 -10 0 -5 -12 -8 -27 -7 -19 1 -29
-3 -31 -15 -3 -15 4 -18 37 -18 l41 0 -6 48 c-4 38 -1 54 14 72 13 16 21 20
26 12 4 -7 1 -12 -6 -12 -9 0 -13 -18 -14 -60 0 -52 2 -60 18 -60 10 0 18 -5
18 -10 0 -6 -8 -10 -17 -8 -15 2 -18 -5 -18 -41 0 -25 -5 -46 -12 -48 -15 -5
-26 14 -17 29 5 7 8 24 8 38 0 22 -5 25 -37 28 -36 3 -37 3 -37 -32 0 -32 3
-36 25 -36 14 0 25 -4 25 -10 0 -5 -11 -10 -25 -10 -14 0 -25 -6 -25 -12 0
-10 -2 -10 -9 0 -5 8 -21 12 -37 11 -16 -2 -35 0 -41 4 -7 4 -31 3 -54 -3 -42
-12 -99 -5 -99 11 0 5 -10 9 -22 10 -15 0 -8 6 22 16 25 9 48 21 52 27 6 8 8
8 8 0 0 -11 79 -49 85 -42 13 15 13 47 0 58 -14 12 -14 15 0 36 15 23 15 24
-17 26 l-33 1 31 4 c33 4 44 27 44 94 0 34 -2 35 -66 44 l-52 7 -4 -36 c-3
-25 0 -36 9 -36 8 0 13 -12 13 -30 0 -17 5 -30 13 -30 8 0 9 -3 1 -8 -6 -4
-14 -14 -17 -22 -4 -12 -6 -11 -6 3 -1 18 -17 24 -23 7 -1 -5 -14 0 -28 10
-24 19 -24 19 -2 13 18 -4 22 -1 22 20 0 23 -5 25 -55 32 -48 6 -55 9 -54 28
1 15 3 17 6 6 3 -11 20 -19 49 -24 53 -8 64 -2 64 34 0 25 -5 29 -37 34 -25 5
-42 2 -53 -8 -13 -11 -19 -12 -28 -3 -16 16 -15 33 3 48 13 11 18 10 28 -3 12
-17 43 -22 195 -32 72 -4 80 -3 85 14 4 17 -4 20 -77 29 l-81 10 75 -1 c74 -2
97 8 65 28 -11 7 -18 6 -25 -5 -6 -9 -10 -10 -10 -3 0 7 -16 15 -36 19 -27 5
-38 2 -50 -12 -12 -15 -15 -16 -11 -3 5 14 -5 18 -55 23 -72 9 -87 2 -26 -13
l43 -10 -42 2 c-54 3 -57 -10 -3 -15 26 -2 41 1 44 9 8 20 26 15 26 -6 0 -24
-17 -36 -33 -23 -7 5 -40 12 -73 15 l-61 6 -8 -42 c-4 -23 -7 -52 -7 -64 0
-13 -4 -23 -8 -23 -5 0 -10 -6 -13 -12 -4 -13 0 13 10 63 4 22 2 29 -11 29 -9
0 -16 4 -16 9 0 5 8 8 18 7 16 -1 18 3 21 57 1 15 7 17 34 12 21 -4 27 -3 19
3 -11 8 -11 10 1 15 8 3 23 4 34 2 73 -15 83 -14 84 3 1 16 2 16 6 0 6 -24 20
-23 28 2 3 11 9 20 11 20 3 0 2 -9 -1 -20z m755 -1 c0 -6 -4 -7 -10 -4 -5 3
-10 11 -10 16 0 6 5 7 10 4 6 -3 10 -11 10 -16z m115 1 c3 -5 1 -10 -4 -10 -6
0 -11 5 -11 10 0 6 2 10 4 10 3 0 8 -4 11 -10z m210 0 c3 -5 12 -7 20 -3 8 3
15 0 15 -7 0 -6 -4 -9 -9 -5 -5 3 -13 -4 -16 -15 -5 -17 -10 -19 -20 -10 -19
16 -34 4 -29 -23 4 -21 4 -21 -5 -1 -7 16 -16 20 -43 17 l-33 -4 34 16 c18 8
40 15 47 15 8 0 14 7 14 15 0 17 16 20 25 5z m-1484 -43 c-13 -13 -15 1 -4 30
7 17 8 17 11 -1 2 -10 -1 -23 -7 -29z m134 28 c43 -11 46 -13 20 -15 -29 -2
-29 -2 -5 -9 19 -6 10 -9 -39 -13 -73 -7 -91 -3 -91 22 0 32 34 36 115 15z
m802 -7 c-3 -8 -6 -5 -6 6 -1 11 2 17 5 13 3 -3 4 -12 1 -19z m391 -9 c-3 -8
-7 -3 -11 10 -4 17 -3 21 5 13 5 -5 8 -16 6 -23z m-668 6 c0 -8 -9 -15 -20
-15 -17 0 -19 2 -8 15 17 19 28 19 28 0z m40 0 c0 -8 -4 -15 -10 -15 -5 0 -10
7 -10 15 0 8 5 15 10 15 6 0 10 -7 10 -15z m345 -15 c3 -5 1 -10 -4 -10 -6 0
-11 5 -11 10 0 6 2 10 4 10 3 0 8 -4 11 -10z m-95 -10 c0 -5 -2 -10 -4 -10 -3
0 -8 5 -11 10 -3 6 -1 10 4 10 6 0 11 -4 11 -10z m-315 -10 c-3 -6 1 -13 9
-16 18 -7 12 -24 -8 -24 -8 0 -13 11 -13 25 0 14 4 25 9 25 5 0 6 -5 3 -10z
m65 0 c0 -5 -2 -10 -4 -10 -3 0 -8 5 -11 10 -3 6 -1 10 4 10 6 0 11 -4 11 -10z
m645 0 c3 -5 1 -10 -4 -10 -6 0 -11 5 -11 10 0 6 2 10 4 10 3 0 8 -4 11 -10z
m195 -6 c0 -5 -64 -34 -85 -39 -5 -1 -28 -7 -51 -13 -37 -11 -41 -15 -37 -40
3 -19 0 -16 -11 13 -19 49 -21 80 -3 49 l12 -21 85 28 c47 15 86 28 88 28 1 1
2 -1 2 -5z m-502 -11 c-10 -2 -26 -2 -35 0 -10 3 -2 5 17 5 19 0 27 -2 18 -5z
m152 -23 c18 -43 9 -45 -12 -4 -10 19 -14 34 -9 34 5 0 14 -14 21 -30z m71 15
c-1 -15 -24 -12 -29 3 -3 9 2 13 12 10 10 -1 17 -7 17 -13z m-561 -5 c0 -5 -2
-10 -4 -10 -3 0 -8 5 -11 10 -3 6 -1 10 4 10 6 0 11 -4 11 -10z m423 -10 c3
-11 2 -20 -3 -20 -4 0 -10 9 -13 20 -3 11 -2 20 3 20 4 0 10 -9 13 -20z m-193
-11 c0 -5 -6 -9 -14 -9 -9 0 -13 -8 -10 -22 l5 -23 -12 22 c-9 17 -9 26 1 38
12 15 30 12 30 -6z m138 14 c-10 -2 -26 -2 -35 0 -10 3 -2 5 17 5 19 0 27 -2
18 -5z m12 -23 c-14 -4 -40 -8 -57 -9 -28 -1 -33 -5 -33 -25 0 -22 3 -23 53
-19 35 3 58 11 69 24 15 18 18 18 32 3 19 -19 19 -19 4 -43 -17 -28 -3 -53 29
-49 16 2 27 8 27 13 -1 6 -4 24 -7 41 -6 30 -4 32 30 37 46 8 58 -1 15 -9 -33
-7 -36 -13 -26 -51 4 -15 14 -23 28 -24 21 0 21 0 -1 -9 -19 -8 -22 -14 -16
-42 3 -18 6 -34 7 -35 1 -1 14 1 29 4 22 4 27 10 24 24 -3 11 -1 17 4 13 5 -3
9 -12 9 -20 0 -8 3 -13 8 -10 4 2 26 7 50 11 36 5 42 3 42 -12 0 -12 -3 -14
-8 -6 -9 15 -81 1 -93 -19 -7 -10 -9 -10 -9 0 0 8 -8 10 -26 6 -15 -4 -35 -7
-46 -8 -10 -1 -23 -8 -28 -16 -9 -13 -11 -13 -20 0 -8 13 -10 12 -10 -2 0 -20
44 -26 55 -8 3 5 19 7 34 4 16 -3 38 -1 51 6 12 6 25 9 28 5 10 -10 -20 -25
-50 -25 -15 0 -29 -4 -32 -9 -3 -4 -17 -6 -31 -3 -19 3 -25 0 -26 -14 -1 -15
-2 -15 -6 -3 -3 13 -13 14 -60 8 -121 -17 -128 -16 -125 9 3 17 -2 22 -20 23
l-23 0 23 9 c12 5 22 11 22 14 0 16 -14 36 -26 36 -8 0 -14 7 -14 16 0 9 -5
12 -12 8 -9 -5 -9 -2 1 9 12 15 11 17 -5 17 -15 0 -20 -9 -22 -41 -1 -23 3
-48 9 -56 9 -10 9 -17 1 -25 -20 -20 -14 -28 21 -30 l32 -1 -33 -4 c-29 -4
-33 -7 -29 -31 2 -15 0 -40 -4 -57 -7 -29 -7 -29 -8 8 -1 28 -5 37 -18 38 -17
1 -17 2 0 6 9 2 17 9 17 15 0 5 -6 8 -14 5 -8 -3 -17 1 -20 10 -8 20 2 35 17
26 7 -4 6 1 -2 11 -12 15 -12 19 1 32 19 19 12 64 -11 65 -12 0 -11 2 4 9 19
8 18 9 -5 11 -34 3 -42 5 -64 14 -12 5 -21 3 -27 -6 -7 -11 -9 -11 -9 -1 0 17
-82 12 -88 -5 -2 -7 3 -13 12 -13 22 0 20 -13 -4 -28 -12 -7 -20 -8 -20 -2 0
5 -8 10 -17 10 -17 1 -17 1 -1 14 10 7 18 29 20 49 1 21 7 37 14 37 6 0 11 -8
10 -17 -1 -14 7 -18 36 -18 41 0 55 24 16 26 -22 1 -22 1 2 8 24 7 44 -5 34
-20 -2 -4 1 -11 7 -14 6 -4 13 2 16 14 4 16 11 20 29 17 13 -3 24 -1 24 3 0 4
10 7 23 5 12 -1 26 -3 31 -3 4 -1 6 -8 2 -16 -3 -9 0 -15 9 -15 8 0 15 9 15
20 0 12 7 20 16 20 13 0 15 7 11 29 -6 28 -4 30 31 34 20 2 51 4 67 4 29 1 29
1 5 -7z m-1152 -20 c23 -6 42 -14 42 -19 0 -8 -110 25 -120 36 -3 3 4 3 15 0
11 -3 39 -11 63 -17z m867 -10 c-5 -8 -11 -8 -17 -2 -6 6 -7 16 -3 22 5 8 11
8 17 2 6 -6 7 -16 3 -22z m165 10 c0 -11 -2 -20 -4 -20 -2 0 -6 9 -9 20 -3 11
-1 20 4 20 5 0 9 -9 9 -20z m530 -20 c6 0 26 7 45 14 19 8 35 11 35 7 0 -10
-46 -31 -67 -31 -12 0 -14 -8 -11 -35 2 -19 0 -35 -4 -35 -4 0 -8 8 -8 18 0
37 -13 42 -64 27 -27 -8 -54 -19 -60 -23 -17 -13 -86 -14 -86 -2 0 6 4 8 10 5
5 -3 20 0 32 7 13 7 27 11 31 10 5 -1 35 5 68 14 55 16 58 18 54 43 -5 24 -5
25 4 4 6 -13 15 -23 21 -23z m-850 20 c0 -5 -4 -10 -10 -10 -5 0 -10 5 -10 10
0 6 5 10 10 10 6 0 10 -4 10 -10z m60 0 c0 -5 -4 -10 -10 -10 -5 0 -10 5 -10
10 0 6 5 10 10 10 6 0 10 -4 10 -10z m630 0 c0 -5 -2 -10 -4 -10 -3 0 -8 5
-11 10 -3 6 -1 10 4 10 6 0 11 -4 11 -10z m-1296 -16 c7 -17 -9 -44 -26 -44
-15 0 -21 30 -8 45 16 19 26 19 34 -1z m1306 -14 c0 -5 -5 -10 -11 -10 -5 0
-7 5 -4 10 3 6 8 10 11 10 2 0 4 -4 4 -10z m-1220 -10 c0 -5 -8 -10 -17 -10
-15 0 -16 2 -3 10 19 12 20 12 20 0z m-205 -54 c17 -1 36 -5 44 -10 7 -5 34
-15 60 -22 44 -13 44 -13 6 -7 -22 4 -52 7 -67 6 -16 0 -28 3 -28 7 0 4 -20
13 -45 19 -25 6 -45 14 -45 17 0 3 10 2 23 -2 12 -4 36 -8 52 -8z m92 -8 c-3
-8 -6 -5 -6 6 -1 11 2 17 5 13 3 -3 4 -12 1 -19z m63 18 c0 -3 -4 -8 -10 -11
-5 -3 -10 -1 -10 4 0 6 5 11 10 11 6 0 10 -2 10 -4z m1480 -26 c0 -5 -7 -10
-16 -10 -8 0 -12 5 -9 10 3 6 10 10 16 10 5 0 9 -4 9 -10z m-50 -19 c0 -9 -41
-23 -49 -16 -3 4 28 20 47 24 1 1 2 -3 2 -8z m-700 -5 c0 -3 -4 -8 -10 -11 -5
-3 -10 -1 -10 4 0 6 5 11 10 11 6 0 10 -2 10 -4z m-687 -13 c-7 -2 -21 -2 -30
0 -10 3 -4 5 12 5 17 0 24 -2 18 -5z m1399 -28 c3 -14 2 -25 -2 -25 -4 0 -10
11 -12 25 -3 14 -2 25 2 25 4 0 10 -11 12 -25z m-1279 8 c-7 -2 -19 -2 -25 0
-7 3 -2 5 12 5 14 0 19 -2 13 -5z m1352 -3 c-3 -5 -16 -10 -28 -9 -20 1 -20 2
3 9 14 4 26 8 28 9 2 1 0 -3 -3 -9z m-1207 -10 c-10 -6 -25 -7 -40 -1 -20 9
-18 10 17 10 31 0 36 -2 23 -9z m42 0 c0 -5 -5 -10 -11 -10 -5 0 -7 5 -4 10 3
6 8 10 11 10 2 0 4 -4 4 -10z m300 -10 c0 -5 -5 -9 -12 -7 -6 1 -15 -9 -19
-23 -7 -23 -7 -23 -8 8 -1 26 3 32 19 32 11 0 20 -4 20 -10z m695 -21 c9 -26
-10 -48 -26 -32 -12 12 -3 53 11 53 5 0 12 -9 15 -21z m-975 -9 c0 -5 -7 -7
-15 -4 -8 4 -15 8 -15 10 0 2 7 4 15 4 8 0 15 -4 15 -10z m280 -6 c0 -8 -5
-12 -10 -9 -6 4 -8 11 -5 16 9 14 15 11 15 -7z m906 -43 c4 -32 2 -41 -11 -41
-11 0 -15 10 -15 38 0 36 8 57 17 48 3 -2 7 -23 9 -45z m-1383 22 c-7 -2 -19
-2 -25 0 -7 3 -2 5 12 5 14 0 19 -2 13 -5z m1076 -50 c1 -7 -3 -13 -9 -13 -5
0 -10 17 -9 38 1 33 2 34 9 12 4 -14 8 -31 9 -37z m-619 26 c0 -5 -4 -9 -10
-9 -5 0 -10 7 -10 16 0 8 5 12 10 9 6 -3 10 -10 10 -16z m29 -8 c-15 -5 -22 6
-14 19 6 9 10 9 16 -1 5 -8 4 -15 -2 -18z m441 -13 c0 -5 -10 -8 -22 -7 -13 0
-17 3 -10 6 6 2 12 12 12 21 0 15 2 15 10 2 5 -8 10 -18 10 -22z m67 0 c-3 -7
-5 -2 -5 12 0 14 2 19 5 13 2 -7 2 -19 0 -25z m311 26 c12 -4 22 -14 22 -24 0
-22 -33 -31 -82 -23 -42 6 -44 9 -25 27 23 23 48 29 85 20z m-475 -37 c38 1
39 0 7 -4 -19 -2 -39 -8 -44 -13 -14 -13 -36 0 -36 22 0 18 2 19 16 7 9 -7 35
-13 57 -12z m127 13 c0 -5 -4 -10 -10 -10 -5 0 -10 5 -10 10 0 6 5 10 10 10 6
0 10 -4 10 -10z m-573 -32 c-3 -8 -6 -5 -6 6 -1 11 2 17 5 13 3 -3 4 -12 1
-19z m173 -8 c0 -5 -5 -10 -11 -10 -5 0 -7 5 -4 10 3 6 8 10 11 10 2 0 4 -4 4
-10z m-435 -19 c7 -12 -12 -24 -25 -16 -11 7 -4 25 10 25 5 0 11 -4 15 -9z
m695 -52 c0 -5 -7 -9 -15 -9 -8 0 -15 -5 -15 -12 0 -6 -3 -9 -6 -5 -11 11 7
46 22 40 7 -3 14 -9 14 -14z m-253 -15 c-3 -3 -12 -4 -19 -1 -8 3 -5 6 6 6 11
1 17 -2 13 -5z m911 -33 c3 -9 0 -12 -10 -8 -9 3 -21 0 -27 -6 -8 -8 -11 -5
-11 12 0 17 5 22 22 19 12 -2 24 -9 26 -17z m-1891 -88 c28 -13 53 -50 42 -63
-8 -8 -64 2 -83 16 -27 19 -91 18 -110 -2 -38 -37 1 -84 68 -84 25 0 48 5 51
10 4 6 -8 10 -30 10 -32 0 -36 3 -33 22 3 20 8 22 58 20 73 -4 93 -10 86 -29
-3 -8 -6 -32 -6 -54 0 -33 -3 -39 -20 -39 -11 0 -23 7 -26 15 -5 11 -11 12
-24 5 -27 -15 -105 -12 -145 4 -34 14 -65 59 -65 93 0 33 38 82 72 92 40 12
122 4 165 -16z m1967 -23 c3 -27 9 -72 12 -100 l6 -50 -38 0 c-37 0 -47 7
-154 96 -13 11 -15 5 -12 -52 l4 -64 -35 0 -34 0 -6 97 c-4 70 -2 100 6 105
30 19 62 6 125 -49 l65 -58 -6 63 -7 62 34 0 c33 0 34 -1 40 -50z m-1674 6
c30 -14 38 -51 16 -75 -15 -16 -15 -19 -1 -31 9 -7 15 -29 15 -52 0 -38 -1
-39 -32 -36 -27 2 -34 8 -36 28 -5 35 -29 50 -79 50 -42 0 -43 0 -43 -35 0
-28 -4 -35 -19 -35 -48 0 -51 7 -45 99 3 47 7 92 10 99 5 16 174 6 214 -12z
m1381 -2 c10 -9 19 -30 19 -45 0 -43 -32 -66 -105 -74 -63 -6 -64 -7 -67 -38
-3 -28 -7 -32 -35 -35 l-33 -3 -2 70 c-1 39 -2 86 -2 104 l-1 32 65 6 c90 9
138 4 161 -17z m-1113 -21 c-3 -26 -4 -26 -75 -24 -45 1 -73 -2 -73 -8 0 -6
30 -11 68 -13 66 -3 67 -4 70 -32 l4 -28 -73 3 c-51 3 -73 0 -76 -8 -4 -10 15
-13 71 -13 l76 0 0 -31 c0 -31 -1 -31 -37 -25 -21 3 -71 6 -110 6 l-73 0 6 93
c3 50 7 97 9 102 1 6 44 9 109 7 l107 -3 -3 -26z m863 -10 c-10 -27 -30 -74
-44 -105 -26 -58 -26 -58 -69 -58 l-43 0 -52 94 c-29 52 -53 97 -53 100 0 3
17 6 38 6 36 0 38 -2 73 -71 l36 -70 29 68 c32 76 38 83 76 83 l28 0 -19 -47z
m-698 30 c62 -5 67 -8 67 -29 0 -23 -3 -24 -75 -24 -43 0 -75 -4 -75 -10 0 -6
32 -10 75 -10 73 0 75 -1 75 -25 0 -24 -2 -25 -75 -25 -60 0 -75 -3 -75 -15 0
-12 15 -15 75 -15 73 0 75 -1 75 -25 l0 -25 -110 0 -110 0 0 68 c0 37 3 84 6
105 6 35 9 37 43 37 20 0 66 -3 104 -7z m341 -1 c2 -4 6 -51 7 -103 l2 -94
-33 -3 c-29 -3 -41 4 -96 59 l-64 63 0 -62 0 -62 -35 0 -35 0 0 100 0 100 38
0 c32 0 45 -8 92 -55 30 -30 57 -55 60 -55 3 0 3 24 2 54 -4 50 -2 55 20 59
12 2 26 5 30 6 4 0 9 -3 12 -7z m376 -171 c0 -23 9 -30 43 -33 30 -3 26 -31
-7 -46 -49 -22 -100 42 -65 84 16 20 29 18 29 -5z m190 -181 c-19 -36 -150
-147 -226 -192 -353 -209 -788 -196 -1125 33 -61 41 -169 136 -169 149 0 4 9
10 21 13 14 4 18 10 13 19 -4 7 6 1 22 -12 114 -93 144 -115 204 -151 85 -50
232 -103 332 -119 100 -16 321 -8 408 16 150 40 317 132 434 238 42 39 51 43
72 34 18 -8 21 -15 14 -28z m-496 -29 c4 -5 -1 -8 -9 -7 -21 3 -31 16 -12 16
9 0 18 -4 21 -9z m606 -21 c0 -5 -4 -10 -10 -10 -5 0 -10 5 -10 10 0 6 5 10
10 10 6 0 10 -4 10 -10z"/>
<path d="M1086 1538 c-3 -7 -7 -37 -10 -65 -5 -53 -5 -53 23 -53 27 0 47 21
33 34 -3 4 -5 27 -3 51 2 40 0 45 -19 45 -11 0 -22 -6 -24 -12z"/>
<path d="M940 1455 c0 -14 5 -25 10 -25 6 0 10 11 10 25 0 14 -4 25 -10 25 -5
0 -10 -11 -10 -25z"/>
<path d="M1085 1390 c10 -11 24 -20 32 -20 7 0 13 9 13 20 0 16 -7 20 -32 20
-30 0 -31 0 -13 -20z"/>
<path d="M1082 1348 c-7 -7 -12 -22 -12 -35 0 -19 5 -23 30 -23 28 0 30 3 30
35 0 27 -4 35 -18 35 -10 0 -23 -5 -30 -12z"/>
<path d="M1648 1502 c-21 -2 -38 -8 -38 -14 0 -7 16 -9 46 -4 33 4 45 3 42 -6
-3 -7 -15 -13 -29 -13 -60 -3 -69 -6 -69 -21 0 -13 7 -15 31 -10 17 3 47 6 65
6 31 0 34 3 34 29 0 32 -16 38 -82 33z"/>
<path d="M1570 1445 c0 -8 4 -15 10 -15 5 0 7 7 4 15 -4 8 -8 15 -10 15 -2 0
-4 -7 -4 -15z"/>
<path d="M1678 1427 c-43 -6 -78 -14 -78 -19 0 -6 17 -7 38 -4 137 20 142 20
141 -6 -1 -17 -3 -18 -6 -5 -2 9 -9 17 -15 17 -6 0 -8 -9 -5 -20 3 -11 1 -20
-4 -20 -5 0 -9 7 -9 15 0 17 -21 19 -92 9 -40 -6 -44 -9 -41 -29 4 -20 10 -22
56 -19 54 3 49 0 -15 -11 -25 -4 -38 -11 -38 -22 0 -13 10 -14 68 -8 37 4 69
9 71 11 9 9 -10 35 -21 28 -9 -5 -10 -4 -3 4 6 6 28 13 49 16 48 6 49 8 41 45
-7 35 -6 35 -137 18z"/>
<path d="M1575 1410 c-3 -5 -1 -10 4 -10 6 0 11 5 11 10 0 6 -2 10 -4 10 -3 0
-8 -4 -11 -10z"/>
<path d="M570 946 c0 -13 12 -16 56 -16 73 0 70 24 -4 28 -42 2 -52 0 -52 -12z"/>
<path d="M1942 944 c2 -8 6 -15 11 -15 4 1 27 1 52 1 33 0 45 4 45 15 0 12
-13 15 -56 15 -45 0 -55 -3 -52 -16z"/>
<path d="M1896 764 c-17 -12 -17 -14 -4 -14 9 0 20 5 23 11 11 17 2 18 -19 3z"/>
<path d="M1850 760 c0 -5 5 -10 11 -10 5 0 7 5 4 10 -3 6 -8 10 -11 10 -2 0
-4 -4 -4 -10z"/>
</g>
</svg>
