<svg width="38" height="35" viewBox="0 0 38 35" fill="none" xmlns="http://www.w3.org/2000/svg">
<path d="M34.876 1.00243C34.4773 1.02006 34.0891 1.13193 33.7391 1.27321C33.3926 1.41355 31.3979 2.27166 28.4524 3.54101C25.5069 4.81037 21.6779 6.46333 17.8823 8.10241C10.2912 11.3806 2.83156 14.606 2.83156 14.606L2.88593 14.5851C2.88593 14.5851 2.43571 14.7368 1.97924 15.0573C1.75101 15.2176 1.50547 15.4245 1.30442 15.7262C1.10337 16.0279 0.956393 16.4555 1.01178 16.9077C1.20633 18.496 2.83956 18.9466 2.83956 18.9466L2.84595 18.9498L10.1347 21.4642C10.3205 22.0891 12.3454 28.901 12.7908 30.3436C13.0368 31.1412 13.267 31.6013 13.5072 31.9151C13.6274 32.0722 13.7533 32.1937 13.8926 32.2826C13.9479 32.3179 14.0061 32.3444 14.0637 32.3681H14.0669C14.0739 32.3712 14.0806 32.3715 14.0877 32.3745L14.0685 32.3697C14.0818 32.3751 14.0951 32.3843 14.1084 32.389C14.1344 32.3982 14.1504 32.3979 14.1836 32.4051C15.0183 32.6989 15.7092 32.1537 15.7092 32.1537L15.7379 32.1311L20.2154 27.9453L27.4818 33.6559L27.5729 33.6978C28.8448 34.267 29.995 33.9494 30.632 33.427C31.269 32.9046 31.5195 32.2311 31.5195 32.2311L31.5467 32.1601L36.8861 4.10998C37.0227 3.48243 37.0421 2.93999 36.9133 2.44982C36.7844 1.95966 36.4714 1.53356 36.0785 1.29739C35.6857 1.06121 35.2748 0.984794 34.876 1.00243ZM34.9192 2.68031C35.0811 2.67275 35.2012 2.69141 35.239 2.71416C35.2768 2.73691 35.2938 2.73391 35.3302 2.87212C35.3665 3.01032 35.3862 3.30141 35.287 3.75699L35.2838 3.76666L29.9748 31.654C29.9622 31.6821 29.8516 31.9401 29.599 32.1472C29.3413 32.3586 29.0547 32.5235 28.2941 32.202L20.3482 25.9563L20.1243 25.779L20.1195 25.7839L17.7432 23.9867L31.0973 8.15076C31.1999 8.02939 31.2655 7.88066 31.286 7.72255C31.3065 7.56444 31.2812 7.40372 31.213 7.25983C31.1449 7.11593 31.0368 6.99502 30.9019 6.91171C30.767 6.8284 30.611 6.78627 30.4529 6.7904C30.2984 6.79445 30.1481 6.8425 30.0195 6.92902L10.696 19.9137L3.39605 17.3944C3.39605 17.3944 2.67117 16.9879 2.63647 16.7046C2.63455 16.6889 2.62599 16.7031 2.66366 16.6466C2.70132 16.59 2.79601 16.4946 2.91472 16.4112C3.15213 16.2445 3.42323 16.1437 3.42323 16.1437L3.45042 16.134L3.4776 16.1227C3.4776 16.1227 10.9376 12.8971 18.5284 9.61911C22.3238 7.98012 26.1521 6.32837 29.0969 5.05933C32.0409 3.79062 34.1682 2.87741 34.3483 2.80442C34.5534 2.72165 34.7572 2.68787 34.9192 2.68031ZM26.0634 11.571L15.9362 23.5805L15.9314 23.5854C15.9156 23.6045 15.9007 23.6244 15.8867 23.645C15.8706 23.6673 15.8556 23.6905 15.8419 23.7143C15.785 23.8116 15.7485 23.9197 15.7347 24.0318C15.7347 24.034 15.7347 24.0361 15.7347 24.0383L14.4155 30.018C14.3935 29.9534 14.3782 29.9298 14.3547 29.8536V29.852C13.9357 28.495 12.0253 22.0707 11.761 21.1822L26.0634 11.571ZM17.0796 25.5485L18.8994 26.925L16.2257 29.4233L17.0796 25.5485Z" fill="#111E14" stroke="#111E14" stroke-width="0.5"/>
</svg>
